# xmcd CD database file
#
# Track frame offsets:
#	150
#	25494
#	47479
#	68731
#	88661
#	114050
#	131072
#	153789
#	176926
#	201150
#	215712
#
# Disc length: 3064 seconds
#
# Revision: 0
# Processed by: cddbd v1.5.2PL0 Copyright (c) Steve Scherf et al.
# Submitted via: CDex 1.51
#
DISCID=970bf60b
DTITLE=Deke Rhoades - Pilgrim
DYEAR=2006
DGENRE=Country
TTITLE0=When you're young
TTITLE1=The marriage game
TTITLE2=So long ago
TTITLE3=So much feelings
TTITLE4=Living a lie
TTITLE5=Day by day
TTITLE6=No one's around
TTITLE7=Pilgrim
TTITLE8=Wings of my dream
TTITLE9=A better life
TTITLE10=Guardian Angel
EXTD=YEAR: 2006
EXTT0=
EXTT1=
EXTT2=
EXTT3=
EXTT4=
EXTT5=
EXTT6=
EXTT7=
EXTT8=
EXTT9=
EXTT10=
PLAYORDER=
